# xmcd CD database file
#
# Track frame offsets:
#	182
#	19585
#	37835
#	55085
#	72945
#	91007
#	101940
#	122060
#	143417
#	165190
#	180185
#	196822
#	209250
#	228960
#	244545
#
# Disc length: 3719 seconds
#
# Revision: 0
# Processed by: cddbd v1.5.1PL0 Copyright (c) Steve Scherf et al.
# Submitted via: CDex 1.40Release
#
DISCID=ad0e850f
DTITLE=Dirty Hands - Four Cool Cats
DYEAR=1995
DGENRE=Blues
TTITLE0=Your Mind Is Never Ok
TTITLE1=I Don't Feel The Same
TTITLE2=I'n't Gonna Knock
TTITLE3=96 Cadillac
TTITLE4=Let You Be
TTITLE5=Jack The Ripper
TTITLE6=Honey Bee (Acoustic)
TTITLE7=One More Nite
TTITLE8=You Gonna Miss Me
TTITLE9=Oopin' Doopin' Doopin'
TTITLE10=I Don't Know Why
TTITLE11=Juke Jump Boogie
TTITLE12=They Call Me Iceberg
TTITLE13=I Won't Cry
TTITLE14=Honey Bee
EXTD=YEAR: 1995 ID3G: 0
EXTT0=
EXTT1=
EXTT2=
EXTT3=
EXTT4=
EXTT5=
EXTT6=
EXTT7=
EXTT8=
EXTT9=
EXTT10=
EXTT11=
EXTT12=
EXTT13=
EXTT14=
PLAYORDER=
